<svg width="16" height="17" viewBox="0 0 16 17" fill="none" xmlns="http://www.w3.org/2000/svg">
    <path fill-rule="evenodd" clip-rule="evenodd" d="M11.333 1.83337C11.7012 1.83337 11.9997 2.13185 11.9997 2.50004V3.16671H12.6663C13.7709 3.16671 14.6663 4.06214 14.6663 5.16671V13.1667C14.6663 14.2713 13.7709 15.1667 12.6663 15.1667H3.33301C2.22844 15.1667 1.33301 14.2713 1.33301 13.1667V5.16671C1.33301 4.06214 2.22844 3.16671 3.33301 3.16671H3.99967V2.50004C3.99967 2.13185 4.29815 1.83337 4.66634 1.83337C5.03453 1.83337 5.33301 2.13185 5.33301 2.50004V3.16671H10.6663V2.50004C10.6663 2.13185 10.9648 1.83337 11.333 1.83337ZM13.3337 8.50004H2.66699V13.1667C2.66699 13.5349 2.96547 13.8334 3.33366 13.8334H12.667C13.0352 13.8334 13.3337 13.5349 13.3337 13.1667V8.50004ZM11.3329 9.83334C11.7011 9.83334 11.9996 10.1318 11.9996 10.5V11.8333C11.9996 12.2015 11.7011 12.5 11.3329 12.5H9.99956C9.63137 12.5 9.33289 12.2015 9.33289 11.8333V10.5C9.33289 10.1318 9.63137 9.83334 9.99956 9.83334H11.3329ZM4.00033 4.50004H3.33366C2.96547 4.50004 2.66699 4.79852 2.66699 5.16671V7.16671H13.3337V5.16671C13.3337 4.79852 13.0352 4.50004 12.667 4.50004H12.0003V5.16671C12.0003 5.5349 11.7018 5.83338 11.3337 5.83338C10.9655 5.83338 10.667 5.5349 10.667 5.16671V4.50004H5.33366V5.16671C5.33366 5.5349 5.03518 5.83338 4.66699 5.83338C4.2988 5.83338 4.00033 5.5349 4.00033 5.16671V4.50004Z" fill="#55B755"/>
</svg>
