<svg width="16" height="17" viewBox="0 0 16 17" fill="none" xmlns="http://www.w3.org/2000/svg">
    <path fill-rule="evenodd" clip-rule="evenodd" d="M12.6663 1.83337C13.7296 1.83337 14.602 2.66776 14.6629 3.71605L14.6663 3.83337V10.5C14.6663 11.5633 13.832 12.4357 12.7837 12.4966L12.6663 12.5H10.333L8.53301 14.9C8.40701 15.068 8.20967 15.1667 7.99967 15.1667C7.81592 15.1667 7.64187 15.0912 7.51682 14.9597L7.46634 14.9L5.66634 12.5H3.33301C2.26972 12.5 1.39736 11.6657 1.33641 10.6174L1.33301 10.5V3.83337C1.33301 2.77009 2.16739 1.89773 3.21568 1.83678L3.33301 1.83337H12.6663ZM12.6663 3.16671H3.33301C2.99191 3.16671 2.70945 3.42481 2.67084 3.75578L2.66634 3.83337V10.5C2.66634 10.8411 2.92444 11.1236 3.25542 11.1622L3.33301 11.1667H5.99967C6.18342 11.1667 6.35748 11.2422 6.48253 11.3737L6.53301 11.4334L7.99967 13.3887L9.46634 11.4334C9.57659 11.2864 9.74146 11.1925 9.92163 11.1713L9.99967 11.1667H12.6663C13.0074 11.1667 13.2899 10.9086 13.3285 10.5776L13.333 10.5V3.83337C13.333 3.49228 13.0749 3.20982 12.7439 3.1712L12.6663 3.16671ZM11.333 7.83337C11.701 7.83337 11.9997 8.13204 11.9997 8.50004C11.9997 8.84175 11.7422 9.12369 11.4107 9.16222L11.333 9.16671H4.66634C4.29834 9.16671 3.99967 8.86804 3.99967 8.50004C3.99967 8.15833 4.2572 7.87639 4.58863 7.83786L4.66634 7.83337H11.333ZM11.333 5.16671C11.701 5.16671 11.9997 5.46537 11.9997 5.83337C11.9997 6.17509 11.7422 6.45702 11.4107 6.49555L11.333 6.50004H4.66634C4.29834 6.50004 3.99967 6.20137 3.99967 5.83337C3.99967 5.49166 4.2572 5.20973 4.58863 5.1712L4.66634 5.16671H11.333Z" fill="#4F89F4"/>
</svg>
