<svg width="16" height="17" viewBox="0 0 16 17" fill="none" xmlns="http://www.w3.org/2000/svg">
    <path fill-rule="evenodd" clip-rule="evenodd" d="M8.31806 4.49996H12.6663C13.7709 4.49996 14.6663 5.39539 14.6663 6.49996V11.8333C14.6663 12.9379 13.7709 13.8333 12.6663 13.8333H3.33301C2.22844 13.8333 1.33301 12.9379 1.33301 11.8333V5.16663C1.33301 4.06206 2.22844 3.16663 3.33301 3.16663H6.92212C7.12348 3.16663 7.31406 3.25764 7.44063 3.41425L8.31806 4.49996ZM6.60374 4.49994H3.33301C2.96482 4.49994 2.66634 4.79842 2.66634 5.16661V11.8333C2.66634 12.2015 2.96482 12.4999 3.33301 12.4999H12.6663C13.0345 12.4999 13.333 12.2015 13.333 11.8333V6.49994C13.333 6.13175 13.0345 5.83327 12.6663 5.83327H7.99967C7.79831 5.83327 7.60774 5.74226 7.48117 5.58565L6.60374 4.49994Z" fill="#4F89F4"/>
</svg>
