<svg width="16" height="17" viewBox="0 0 16 17" fill="none" xmlns="http://www.w3.org/2000/svg">
    <path fill-rule="evenodd" clip-rule="evenodd" d="M7.72901 1.89166C7.87672 1.82602 8.04234 1.81665 8.19518 1.86353L8.27039 1.89166L14.2704 4.55751C14.5117 4.66473 14.6647 4.90276 14.6664 5.16205L14.6623 5.24037L14.2807 8.6748C14.0856 10.4303 13.1276 12.007 11.668 12.9895L11.4974 13.1002L8.35303 15.0654C8.16087 15.1855 7.92278 15.1989 7.72042 15.1054L7.64636 15.0654L4.50202 13.1002C3.00419 12.1641 1.99795 10.6177 1.74459 8.87654L1.71871 8.6748L1.33711 5.24037C1.30795 4.97792 1.43631 4.72578 1.65933 4.59349L1.72901 4.55751L7.72901 1.89166ZM7.99973 3.23041L2.71619 5.57793L3.04392 8.52756C3.19462 9.88382 3.9308 11.1029 5.05328 11.868L5.20872 11.9695L7.99973 13.7139L10.7907 11.9695C11.9479 11.2463 12.7279 10.0548 12.9314 8.71162L12.9555 8.52756L13.2833 5.57793L7.99973 3.23041ZM9.47548 6.08825C9.70295 5.79873 10.1221 5.74844 10.4116 5.97592C10.6788 6.18589 10.7422 6.55915 10.5715 6.84304L10.5239 6.91201L7.85725 10.2453C7.62795 10.5371 7.20971 10.582 6.92486 10.3606L6.86163 10.3048L5.52831 8.97151C5.26796 8.71116 5.26796 8.28906 5.52831 8.02871C5.76863 7.78839 6.14679 7.7699 6.40831 7.97325L6.47112 8.02871L7.27309 8.83067L9.47548 6.08825Z" fill="#55B755"/>
</svg>
