<svg width="16" height="17" viewBox="0 0 16 17" fill="none" xmlns="http://www.w3.org/2000/svg">
    <path fill-rule="evenodd" clip-rule="evenodd" d="M11.3337 1.83325C12.4382 1.83325 13.3337 2.72868 13.3337 3.83325V14.4999C13.3337 15.0695 12.6656 15.3768 12.2331 15.0061L8.00033 11.378L3.76752 15.0061C3.33507 15.3768 2.66699 15.0695 2.66699 14.4999V3.83325C2.66699 2.72868 3.56242 1.83325 4.66699 1.83325H11.3337ZM11.3337 3.16656H4.66703C4.29884 3.16656 4.00037 3.46504 4.00037 3.83323V13.0504L7.56651 9.99373C7.81617 9.77973 8.18457 9.77973 8.43423 9.99373L12.0004 13.0504V3.83323C12.0004 3.46504 11.7019 3.16656 11.3337 3.16656ZM8.00037 4.4999C8.36856 4.4999 8.66703 4.79838 8.66703 5.16656V5.83323H9.3337C9.70189 5.83323 10.0004 6.13171 10.0004 6.4999C10.0004 6.86809 9.70189 7.16656 9.3337 7.16656H8.66703V7.83323C8.66703 8.20142 8.36856 8.4999 8.00037 8.4999C7.63218 8.4999 7.3337 8.20142 7.3337 7.83323V7.16656H6.66703C6.29884 7.16656 6.00037 6.86809 6.00037 6.4999C6.00037 6.13171 6.29884 5.83323 6.66703 5.83323H7.3337V5.16656C7.3337 4.79838 7.63218 4.4999 8.00037 4.4999Z" fill="#55B755"/>
</svg>
